<svg width="30" height="20" viewBox="0 0 30 20" fill="none" xmlns="http://www.w3.org/2000/svg">
<g clip-path="url(#clip0_4_1015)">
<path d="M1.23295 15V4.81818H4.79261C5.50189 4.81818 6.08688 4.94081 6.54759 5.18608C7.00829 5.42803 7.35133 5.7545 7.5767 6.16548C7.80208 6.57315 7.91477 7.02557 7.91477 7.52273C7.91477 7.96023 7.83688 8.3215 7.68111 8.60653C7.52865 8.89157 7.32647 9.11695 7.07457 9.28267C6.82599 9.44839 6.55587 9.57102 6.2642 9.65057V9.75C6.57576 9.76989 6.88897 9.87926 7.20384 10.0781C7.5187 10.277 7.7822 10.562 7.99432 10.9332C8.20644 11.3045 8.3125 11.7585 8.3125 12.2955C8.3125 12.8059 8.1965 13.2649 7.96449 13.6726C7.73248 14.0803 7.36624 14.4034 6.86577 14.642C6.36529 14.8807 5.71402 15 4.91193 15H1.23295ZM2.46591 13.9062H4.91193C5.71733 13.9062 6.28906 13.7505 6.62713 13.4389C6.96851 13.1241 7.1392 12.7429 7.1392 12.2955C7.1392 11.9508 7.05137 11.6326 6.87571 11.3409C6.70005 11.0459 6.44981 10.8106 6.125 10.6349C5.80019 10.456 5.41572 10.3665 4.97159 10.3665H2.46591V13.9062ZM2.46591 9.29261H4.75284C5.12405 9.29261 5.45881 9.2197 5.7571 9.07386C6.05871 8.92803 6.29735 8.72254 6.47301 8.45739C6.65199 8.19223 6.74148 7.88068 6.74148 7.52273C6.74148 7.07528 6.5857 6.69579 6.27415 6.38423C5.9626 6.06937 5.46875 5.91193 4.79261 5.91193H2.46591V9.29261ZM14.9918 11.8778V7.36364H16.1651V15H14.9918V13.7074H14.9123C14.7333 14.0952 14.4549 14.425 14.0771 14.6967C13.6992 14.9652 13.2219 15.0994 12.6452 15.0994C12.168 15.0994 11.7437 14.995 11.3725 14.7862C11.0013 14.5741 10.7096 14.2559 10.4975 13.8317C10.2854 13.4041 10.1793 12.8655 10.1793 12.2159V7.36364H11.3526V12.1364C11.3526 12.6932 11.5084 13.1373 11.82 13.4688C12.1348 13.8002 12.5359 13.9659 13.0231 13.9659C13.3147 13.9659 13.6114 13.8913 13.913 13.7422C14.2179 13.593 14.4731 13.3643 14.6786 13.0561C14.8874 12.7479 14.9918 12.3551 14.9918 11.8778ZM21.1976 15.1591C20.5613 15.1591 19.9995 14.9983 19.5123 14.6768C19.025 14.352 18.6439 13.8946 18.3688 13.3047C18.0937 12.7114 17.9561 12.0104 17.9561 11.2017C17.9561 10.3996 18.0937 9.7036 18.3688 9.11364C18.6439 8.52367 19.0267 8.06794 19.5172 7.74645C20.0078 7.42495 20.5745 7.2642 21.2175 7.2642C21.7147 7.2642 22.1074 7.34706 22.3958 7.51278C22.6874 7.67519 22.9095 7.8608 23.062 8.0696C23.2177 8.27509 23.3387 8.44413 23.4249 8.5767H23.5243V4.81818H24.6976V15H23.5641V13.8267H23.4249C23.3387 13.9659 23.2161 14.1416 23.057 14.3537C22.8979 14.5625 22.6709 14.7498 22.3759 14.9155C22.0809 15.0779 21.6882 15.1591 21.1976 15.1591ZM21.3567 14.1051C21.8274 14.1051 22.2251 13.9825 22.5499 13.7372C22.8747 13.4886 23.1216 13.1456 23.2907 12.7081C23.4597 12.2673 23.5442 11.7585 23.5442 11.1818C23.5442 10.6117 23.4614 10.1129 23.2956 9.68537C23.1299 9.2545 22.8846 8.91974 22.5598 8.68111C22.235 8.43916 21.834 8.31818 21.3567 8.31818C20.8596 8.31818 20.4453 8.44579 20.1138 8.70099C19.7857 8.95289 19.5388 9.29593 19.373 9.73011C19.2106 10.161 19.1294 10.6449 19.1294 11.1818C19.1294 11.7254 19.2123 12.2192 19.378 12.6634C19.5471 13.1042 19.7956 13.4555 20.1238 13.7173C20.4552 13.9759 20.8662 14.1051 21.3567 14.1051ZM27.0094 15V7.36364H28.1827V15H27.0094ZM27.606 6.09091C27.3773 6.09091 27.1801 6.01302 27.0144 5.85724C26.852 5.70147 26.7708 5.5142 26.7708 5.29545C26.7708 5.0767 26.852 4.88944 27.0144 4.73366C27.1801 4.57789 27.3773 4.5 27.606 4.5C27.8347 4.5 28.0302 4.57789 28.1926 4.73366C28.3584 4.88944 28.4412 5.0767 28.4412 5.29545C28.4412 5.5142 28.3584 5.70147 28.1926 5.85724C28.0302 6.01302 27.8347 6.09091 27.606 6.09091Z" fill="#111827"/>
</g>
<defs>
<clipPath id="clip0_4_1015">
<rect width="30" height="20" fill="white"/>
</clipPath>
</defs>
</svg>
