<svg width="414" height="180" viewBox="0 0 414 180" fill="none" xmlns="http://www.w3.org/2000/svg">
<path d="M282 90.0001C282 72.9012 276.157 56.3156 265.44 42.9921C254.723 29.6685 239.775 20.4071 223.073 16.7426C206.371 13.0782 188.919 15.2307 173.608 22.8435C158.298 30.4564 146.048 43.0723 138.889 58.6006L161.593 69.0671C166.365 58.7149 174.532 50.3043 184.739 45.2291C194.946 40.1539 206.581 38.7188 217.715 41.1618C228.85 43.6048 238.815 49.7791 245.96 58.6614C253.105 67.5437 257 78.6008 257 90.0001H282Z" fill="#1A73E8" stroke="white"/>
<path d="M137.339 62.208C133.42 72.0317 131.623 82.5732 132.066 93.1405C132.509 103.708 135.182 114.062 139.909 123.523C144.637 132.984 151.312 141.339 159.496 148.038C167.681 154.737 177.19 159.629 187.399 162.393L193.933 138.262C187.127 136.419 180.787 133.158 175.331 128.692C169.875 124.226 165.424 118.656 162.273 112.349C159.121 106.041 157.339 99.1385 157.044 92.0936C156.749 85.0487 157.947 78.021 160.56 71.4719L137.339 62.208Z" fill="#F97316" stroke="white"/>
<path d="M191.215 163.32C202.299 165.706 213.78 165.548 224.795 162.858C235.809 160.168 246.07 155.016 254.807 147.788L238.871 128.525C233.047 133.344 226.206 136.779 218.863 138.572C211.52 140.365 203.866 140.471 196.476 138.88L191.215 163.32Z" fill="#16A34A" stroke="white"/>
<path d="M257.766 145.207C266.673 137.016 273.467 126.791 277.566 115.405L254.044 106.937C251.311 114.527 246.782 121.344 240.844 126.804L257.766 145.207Z" fill="#8B5CF6" stroke="white"/>
<path d="M278.799 111.678C280.541 105.906 281.582 99.946 281.897 93.9256L256.931 92.6172C256.721 96.6308 256.028 100.604 254.866 104.452L278.799 111.678Z" fill="#6B7280" stroke="white"/>
</svg>
