<svg width="494" height="17" viewBox="0 0 494 17" fill="none" xmlns="http://www.w3.org/2000/svg">
<g clip-path="url(#clip0_4_1000)">
<path d="M9.42614 7H8.19318C8.12027 6.64536 7.99266 6.33381 7.81037 6.06534C7.63139 5.79688 7.41264 5.5715 7.15412 5.3892C6.89891 5.2036 6.61553 5.06439 6.30398 4.97159C5.99242 4.87879 5.66761 4.83239 5.32955 4.83239C4.71307 4.83239 4.15459 4.98816 3.65412 5.29972C3.15696 5.61127 2.76089 6.07031 2.46591 6.67685C2.17424 7.28338 2.02841 8.02746 2.02841 8.90909C2.02841 9.79072 2.17424 10.5348 2.46591 11.1413C2.76089 11.7479 3.15696 12.2069 3.65412 12.5185C4.15459 12.83 4.71307 12.9858 5.32955 12.9858C5.66761 12.9858 5.99242 12.9394 6.30398 12.8466C6.61553 12.7538 6.89891 12.6162 7.15412 12.4339C7.41264 12.2483 7.63139 12.0213 7.81037 11.7528C7.99266 11.4811 8.12027 11.1695 8.19318 10.8182H9.42614C9.33333 11.3385 9.1643 11.8042 8.91903 12.2152C8.67377 12.6262 8.36885 12.9759 8.00426 13.2642C7.63968 13.5492 7.23035 13.7663 6.77628 13.9155C6.32552 14.0646 5.84328 14.1392 5.32955 14.1392C4.46117 14.1392 3.68892 13.9271 3.01278 13.5028C2.33665 13.0786 1.80469 12.4754 1.4169 11.6932C1.02912 10.911 0.835227 9.98295 0.835227 8.90909C0.835227 7.83523 1.02912 6.9072 1.4169 6.125C1.80469 5.3428 2.33665 4.73958 3.01278 4.31534C3.68892 3.8911 4.46117 3.67898 5.32955 3.67898C5.84328 3.67898 6.32552 3.75355 6.77628 3.9027C7.23035 4.05185 7.63968 4.2706 8.00426 4.55895C8.36885 4.84399 8.67377 5.192 8.91903 5.60298C9.1643 6.01065 9.33333 6.47633 9.42614 7ZM13.5066 14.179C13.0227 14.179 12.5835 14.0878 12.1891 13.9055C11.7947 13.7199 11.4815 13.4531 11.2495 13.1051C11.0175 12.7538 10.9015 12.3295 10.9015 11.8324C10.9015 11.3949 10.9876 11.0402 11.16 10.7685C11.3323 10.4934 11.5627 10.2779 11.851 10.1222C12.1394 9.96638 12.4576 9.85038 12.8056 9.77415C13.1569 9.6946 13.5099 9.63163 13.8645 9.58523C14.3285 9.52557 14.7047 9.48082 14.9931 9.45099C15.2847 9.41785 15.4969 9.36316 15.6294 9.28693C15.7653 9.2107 15.8333 9.07812 15.8333 8.8892V8.84943C15.8333 8.3589 15.699 7.97775 15.4306 7.70597C15.1654 7.43419 14.7627 7.2983 14.2225 7.2983C13.6623 7.2983 13.2232 7.42093 12.905 7.66619C12.5868 7.91146 12.3631 8.1733 12.2338 8.4517L11.1202 8.05398C11.3191 7.58996 11.5842 7.22869 11.9157 6.97017C12.2504 6.70833 12.615 6.52604 13.0094 6.4233C13.4071 6.31723 13.7982 6.2642 14.1827 6.2642C14.428 6.2642 14.7097 6.29403 15.0279 6.35369C15.3494 6.41004 15.6593 6.5277 15.9576 6.70668C16.2592 6.88565 16.5094 7.15578 16.7083 7.51705C16.9071 7.87831 17.0066 8.36222 17.0066 8.96875V14H15.8333V12.9659H15.7736C15.6941 13.1316 15.5615 13.3089 15.3759 13.4979C15.1903 13.6868 14.9434 13.8475 14.6351 13.9801C14.3269 14.1127 13.9507 14.179 13.5066 14.179ZM13.6855 13.125C14.1496 13.125 14.5407 13.0339 14.8588 12.8516C15.1803 12.6693 15.4223 12.4339 15.5847 12.1456C15.7504 11.8572 15.8333 11.554 15.8333 11.2358V10.1619C15.7836 10.2216 15.6742 10.2763 15.5051 10.326C15.3394 10.3724 15.1472 10.4138 14.9284 10.4503C14.713 10.4834 14.5025 10.5133 14.2971 10.5398C14.0949 10.563 13.9308 10.5829 13.8049 10.5994C13.4999 10.6392 13.2149 10.7038 12.9498 10.7933C12.6879 10.8795 12.4758 11.0104 12.3134 11.1861C12.1543 11.3584 12.0748 11.5937 12.0748 11.892C12.0748 12.2997 12.2256 12.608 12.5272 12.8168C12.8321 13.0223 13.2182 13.125 13.6855 13.125ZM19.1481 14V6.36364H20.2816V7.51705H20.3612C20.5004 7.1392 20.7522 6.83262 21.1168 6.5973C21.4814 6.36198 21.8924 6.24432 22.3498 6.24432C22.436 6.24432 22.5437 6.24597 22.6729 6.24929C22.8022 6.2526 22.9 6.25758 22.9663 6.2642V7.45739C22.9265 7.44744 22.8353 7.43253 22.6928 7.41264C22.5536 7.38944 22.4061 7.37784 22.2504 7.37784C21.8791 7.37784 21.5477 7.45573 21.256 7.61151C20.9677 7.76397 20.739 7.97609 20.57 8.24787C20.4042 8.51634 20.3214 8.82292 20.3214 9.16761V14H19.1481ZM24.3571 14V6.36364H25.5304V14H24.3571ZM24.9537 5.09091C24.725 5.09091 24.5278 5.01302 24.362 4.85724C24.1996 4.70147 24.1184 4.5142 24.1184 4.29545C24.1184 4.0767 24.1996 3.88944 24.362 3.73366C24.5278 3.57789 24.725 3.5 24.9537 3.5C25.1824 3.5 25.3779 3.57789 25.5403 3.73366C25.706 3.88944 25.7889 4.0767 25.7889 4.29545C25.7889 4.5142 25.706 4.70147 25.5403 4.85724C25.3779 5.01302 25.1824 5.09091 24.9537 5.09091ZM31.6168 16.8636V6.36364H32.7504V7.5767H32.8896C32.9757 7.44413 33.0951 7.27509 33.2475 7.0696C33.4033 6.8608 33.6254 6.67519 33.9137 6.51278C34.2054 6.34706 34.5998 6.2642 35.0969 6.2642C35.7399 6.2642 36.3067 6.42495 36.7972 6.74645C37.2878 7.06794 37.6706 7.52367 37.9457 8.11364C38.2208 8.7036 38.3583 9.39962 38.3583 10.2017C38.3583 11.0104 38.2208 11.7114 37.9457 12.3047C37.6706 12.8946 37.2894 13.352 36.8022 13.6768C36.315 13.9983 35.7532 14.1591 35.1168 14.1591C34.6263 14.1591 34.2335 14.0779 33.9386 13.9155C33.6436 13.7498 33.4165 13.5625 33.2575 13.3537C33.0984 13.1416 32.9757 12.9659 32.8896 12.8267H32.7901V16.8636H31.6168ZM32.7702 10.1818C32.7702 10.7585 32.8548 11.2673 33.0238 11.7081C33.1928 12.1456 33.4397 12.4886 33.7646 12.7372C34.0894 12.9825 34.4871 13.1051 34.9577 13.1051C35.4483 13.1051 35.8576 12.9759 36.1857 12.7173C36.5172 12.4555 36.7657 12.1042 36.9315 11.6634C37.1005 11.2192 37.185 10.7254 37.185 10.1818C37.185 9.64489 37.1022 9.16098 36.9364 8.73011C36.774 8.29593 36.5271 7.95289 36.1957 7.70099C35.8675 7.44579 35.4549 7.31818 34.9577 7.31818C34.4805 7.31818 34.0794 7.43916 33.7546 7.68111C33.4298 7.91974 33.1845 8.2545 33.0188 8.68537C32.8531 9.11293 32.7702 9.61174 32.7702 10.1818ZM40.1481 14V6.36364H41.2816V7.51705H41.3612C41.5004 7.1392 41.7522 6.83262 42.1168 6.5973C42.4814 6.36198 42.8924 6.24432 43.3498 6.24432C43.436 6.24432 43.5437 6.24597 43.6729 6.24929C43.8022 6.2526 43.9 6.25758 43.9663 6.2642V7.45739C43.9265 7.44744 43.8353 7.43253 43.6928 7.41264C43.5536 7.38944 43.4061 7.37784 43.2504 7.37784C42.8791 7.37784 42.5477 7.45573 42.256 7.61151C41.9677 7.76397 41.739 7.97609 41.57 8.24787C41.4042 8.51634 41.3214 8.82292 41.3214 9.16761V14H40.1481ZM48.2269 14.1591C47.5375 14.1591 46.9326 13.995 46.4123 13.6669C45.8952 13.3388 45.4909 12.8797 45.1992 12.2898C44.9109 11.6998 44.7667 11.0104 44.7667 10.2216C44.7667 9.42614 44.9109 8.73177 45.1992 8.13849C45.4909 7.54522 45.8952 7.08452 46.4123 6.75639C46.9326 6.42827 47.5375 6.2642 48.2269 6.2642C48.9163 6.2642 49.5195 6.42827 50.0366 6.75639C50.5569 7.08452 50.9613 7.54522 51.2496 8.13849C51.5413 8.73177 51.6871 9.42614 51.6871 10.2216C51.6871 11.0104 51.5413 11.6998 51.2496 12.2898C50.9613 12.8797 50.5569 13.3388 50.0366 13.6669C49.5195 13.995 48.9163 14.1591 48.2269 14.1591ZM48.2269 13.1051C48.7506 13.1051 49.1815 12.9709 49.5195 12.7024C49.8576 12.4339 50.1078 12.081 50.2702 11.6435C50.4326 11.206 50.5138 10.732 50.5138 10.2216C50.5138 9.71117 50.4326 9.23556 50.2702 8.79474C50.1078 8.35393 49.8576 7.99763 49.5195 7.72585C49.1815 7.45407 48.7506 7.31818 48.2269 7.31818C47.7032 7.31818 47.2724 7.45407 46.9343 7.72585C46.5962 7.99763 46.346 8.35393 46.1836 8.79474C46.0212 9.23556 45.94 9.71117 45.94 10.2216C45.94 10.732 46.0212 11.206 46.1836 11.6435C46.346 12.081 46.5962 12.4339 46.9343 12.7024C47.2724 12.9709 47.7032 13.1051 48.2269 13.1051ZM56.3617 14.1591C55.7253 14.1591 55.1635 13.9983 54.6763 13.6768C54.1891 13.352 53.8079 12.8946 53.5328 12.3047C53.2578 11.7114 53.1202 11.0104 53.1202 10.2017C53.1202 9.39962 53.2578 8.7036 53.5328 8.11364C53.8079 7.52367 54.1908 7.06794 54.6813 6.74645C55.1718 6.42495 55.7386 6.2642 56.3816 6.2642C56.8787 6.2642 57.2715 6.34706 57.5598 6.51278C57.8515 6.67519 58.0736 6.8608 58.226 7.0696C58.3818 7.27509 58.5028 7.44413 58.589 7.5767H58.6884V3.81818H59.8617V14H58.7282V12.8267H58.589C58.5028 12.9659 58.3801 13.1416 58.2211 13.3537C58.062 13.5625 57.8349 13.7498 57.54 13.9155C57.245 14.0779 56.8522 14.1591 56.3617 14.1591ZM56.5208 13.1051C56.9914 13.1051 57.3891 12.9825 57.714 12.7372C58.0388 12.4886 58.2857 12.1456 58.4547 11.7081C58.6238 11.2673 58.7083 10.7585 58.7083 10.1818C58.7083 9.61174 58.6254 9.11293 58.4597 8.68537C58.294 8.2545 58.0487 7.91974 57.7239 7.68111C57.3991 7.43916 56.998 7.31818 56.5208 7.31818C56.0236 7.31818 55.6093 7.44579 55.2779 7.70099C54.9498 7.95289 54.7028 8.29593 54.5371 8.73011C54.3747 9.16098 54.2935 9.64489 54.2935 10.1818C54.2935 10.7254 54.3764 11.2192 54.5421 11.6634C54.7111 12.1042 54.9597 12.4555 55.2878 12.7173C55.6193 12.9759 56.0302 13.1051 56.5208 13.1051ZM66.986 10.8778V6.36364H68.1593V14H66.986V12.7074H66.9064C66.7275 13.0952 66.449 13.425 66.0712 13.6967C65.6934 13.9652 65.2161 14.0994 64.6394 14.0994C64.1621 14.0994 63.7379 13.995 63.3667 13.7862C62.9954 13.5741 62.7038 13.2559 62.4917 12.8317C62.2795 12.4041 62.1735 11.8655 62.1735 11.2159V6.36364H63.3468V11.1364C63.3468 11.6932 63.5025 12.1373 63.8141 12.4688C64.129 12.8002 64.53 12.9659 65.0172 12.9659C65.3089 12.9659 65.6055 12.8913 65.9071 12.7422C66.2121 12.593 66.4673 12.3643 66.6728 12.0561C66.8816 11.7479 66.986 11.3551 66.986 10.8778ZM71.402 11.2159L71.3821 9.7642H71.6207L74.9616 6.36364H76.4134L72.8537 9.96307H72.7543L71.402 11.2159ZM70.3082 14V3.81818H71.4815V14H70.3082ZM75.1605 14L72.1776 10.2216L73.0128 9.40625L76.652 14H75.1605ZM79.6735 12.608L79.5939 13.1449C79.5376 13.5227 79.4514 13.9271 79.3354 14.358C79.2227 14.7888 79.1051 15.1948 78.9824 15.576C78.8598 15.9571 78.7587 16.2604 78.6792 16.4858H77.7843C77.8274 16.2737 77.8837 15.9936 77.9533 15.6456C78.0229 15.2976 78.0925 14.9081 78.1621 14.4773C78.235 14.0497 78.2947 13.6122 78.3411 13.1648L78.4007 12.608H79.6735ZM85.7848 14V6.36364H86.9183V7.55682H87.0178C87.1768 7.14915 87.4337 6.83262 87.7884 6.60724C88.143 6.37855 88.5689 6.2642 89.0661 6.2642C89.5698 6.2642 89.9891 6.37855 90.3239 6.60724C90.6619 6.83262 90.9254 7.14915 91.1143 7.55682H91.1939C91.3894 7.16241 91.6828 6.84919 92.0739 6.61719C92.465 6.38187 92.9339 6.2642 93.4808 6.2642C94.1636 6.2642 94.7221 6.47798 95.1562 6.90554C95.5904 7.32978 95.8075 7.991 95.8075 8.8892V14H94.6342V8.8892C94.6342 8.32576 94.4801 7.92306 94.1719 7.68111C93.8636 7.43916 93.5007 7.31818 93.0831 7.31818C92.5462 7.31818 92.1302 7.48059 91.8352 7.8054C91.5402 8.12689 91.3928 8.53456 91.3928 9.02841V14H90.1996V8.76989C90.1996 8.3357 90.0587 7.98603 89.777 7.72088C89.4953 7.45241 89.1323 7.31818 88.6882 7.31818C88.3833 7.31818 88.0982 7.39938 87.8331 7.56179C87.5713 7.72419 87.3591 7.94957 87.1967 8.23793C87.0376 8.52296 86.9581 8.85275 86.9581 9.22727V14H85.7848ZM101.154 14.1591C100.419 14.1591 99.784 13.9967 99.2504 13.6719C98.7201 13.3438 98.3107 12.8864 98.0224 12.2997C97.7373 11.7098 97.5948 11.0237 97.5948 10.2415C97.5948 9.45928 97.7373 8.76989 98.0224 8.1733C98.3107 7.57339 98.7118 7.10606 99.2255 6.77131C99.7425 6.43324 100.346 6.2642 101.035 6.2642C101.433 6.2642 101.826 6.33049 102.213 6.46307C102.601 6.59564 102.954 6.81108 103.272 7.10938C103.591 7.40436 103.844 7.79545 104.033 8.28267C104.222 8.76989 104.316 9.36979 104.316 10.0824V10.5795H98.43V9.56534H103.123C103.123 9.13447 103.037 8.75 102.865 8.41193C102.696 8.07386 102.454 7.80705 102.139 7.61151C101.827 7.41596 101.459 7.31818 101.035 7.31818C100.568 7.31818 100.163 7.43419 99.8221 7.66619C99.484 7.89489 99.2238 8.19318 99.0415 8.56108C98.8593 8.92898 98.7681 9.32339 98.7681 9.74432V10.4205C98.7681 10.9972 98.8675 11.486 99.0664 11.8871C99.2686 12.2848 99.5487 12.5881 99.9066 12.7969C100.265 13.0024 100.681 13.1051 101.154 13.1051C101.463 13.1051 101.741 13.062 101.99 12.9759C102.242 12.8864 102.459 12.7538 102.641 12.5781C102.823 12.3991 102.964 12.1771 103.064 11.9119L104.197 12.2301C104.078 12.6146 103.877 12.9527 103.596 13.2443C103.314 13.5327 102.966 13.758 102.551 13.9205C102.137 14.0795 101.672 14.1591 101.154 14.1591ZM106.101 14V6.36364H107.235V7.51705H107.314C107.453 7.1392 107.705 6.83262 108.07 6.5973C108.435 6.36198 108.846 6.24432 109.303 6.24432C109.389 6.24432 109.497 6.24597 109.626 6.24929C109.755 6.2526 109.853 6.25758 109.919 6.2642V7.45739C109.88 7.44744 109.788 7.43253 109.646 7.41264C109.507 7.38944 109.359 7.37784 109.203 7.37784C108.832 7.37784 108.501 7.45573 108.209 7.61151C107.921 7.76397 107.692 7.97609 107.523 8.24787C107.357 8.51634 107.275 8.82292 107.275 9.16761V14H106.101ZM114.279 14.1591C113.544 14.1591 112.909 13.9967 112.375 13.6719C111.845 13.3438 111.436 12.8864 111.147 12.2997C110.862 11.7098 110.72 11.0237 110.72 10.2415C110.72 9.45928 110.862 8.76989 111.147 8.1733C111.436 7.57339 111.837 7.10606 112.35 6.77131C112.868 6.43324 113.471 6.2642 114.16 6.2642C114.558 6.2642 114.951 6.33049 115.338 6.46307C115.726 6.59564 116.079 6.81108 116.397 7.10938C116.716 7.40436 116.969 7.79545 117.158 8.28267C117.347 8.76989 117.441 9.36979 117.441 10.0824V10.5795H111.555V9.56534H116.248C116.248 9.13447 116.162 8.75 115.99 8.41193C115.821 8.07386 115.579 7.80705 115.264 7.61151C114.952 7.41596 114.584 7.31818 114.16 7.31818C113.693 7.31818 113.288 7.43419 112.947 7.66619C112.609 7.89489 112.349 8.19318 112.167 8.56108C111.984 8.92898 111.893 9.32339 111.893 9.74432V10.4205C111.893 10.9972 111.993 11.486 112.191 11.8871C112.394 12.2848 112.674 12.5881 113.032 12.7969C113.39 13.0024 113.806 13.1051 114.279 13.1051C114.588 13.1051 114.866 13.062 115.115 12.9759C115.367 12.8864 115.584 12.7538 115.766 12.5781C115.948 12.3991 116.089 12.1771 116.189 11.9119L117.322 12.2301C117.203 12.6146 117.002 12.9527 116.721 13.2443C116.439 13.5327 116.091 13.758 115.676 13.9205C115.262 14.0795 114.797 14.1591 114.279 14.1591ZM120.32 11.2159L120.3 9.7642H120.539L123.88 6.36364H125.331L121.772 9.96307H121.672L120.32 11.2159ZM119.226 14V3.81818H120.4V14H119.226ZM124.078 14L121.096 10.2216L121.931 9.40625L125.57 14H124.078ZM128.591 12.608L128.512 13.1449C128.456 13.5227 128.369 13.9271 128.253 14.358C128.141 14.7888 128.023 15.1948 127.9 15.576C127.778 15.9571 127.677 16.2604 127.597 16.4858H126.702C126.745 16.2737 126.802 15.9936 126.871 15.6456C126.941 15.2976 127.01 14.9081 127.08 14.4773C127.153 14.0497 127.213 13.6122 127.259 13.1648L127.319 12.608H128.591ZM135.797 11.2159L135.777 9.7642H136.015L139.356 6.36364H140.808L137.248 9.96307H137.149L135.797 11.2159ZM134.703 14V3.81818H135.876V14H134.703ZM139.555 14L136.572 10.2216L137.407 9.40625L141.047 14H139.555ZM144.565 14.179C144.081 14.179 143.642 14.0878 143.248 13.9055C142.853 13.7199 142.54 13.4531 142.308 13.1051C142.076 12.7538 141.96 12.3295 141.96 11.8324C141.96 11.3949 142.046 11.0402 142.219 10.7685C142.391 10.4934 142.621 10.2779 142.91 10.1222C143.198 9.96638 143.516 9.85038 143.864 9.77415C144.215 9.6946 144.568 9.63163 144.923 9.58523C145.387 9.52557 145.763 9.48082 146.052 9.45099C146.343 9.41785 146.555 9.36316 146.688 9.28693C146.824 9.2107 146.892 9.07812 146.892 8.8892V8.84943C146.892 8.3589 146.758 7.97775 146.489 7.70597C146.224 7.43419 145.821 7.2983 145.281 7.2983C144.721 7.2983 144.282 7.42093 143.964 7.66619C143.645 7.91146 143.422 8.1733 143.292 8.4517L142.179 8.05398C142.378 7.58996 142.643 7.22869 142.974 6.97017C143.309 6.70833 143.674 6.52604 144.068 6.4233C144.466 6.31723 144.857 6.2642 145.241 6.2642C145.487 6.2642 145.768 6.29403 146.086 6.35369C146.408 6.41004 146.718 6.5277 147.016 6.70668C147.318 6.88565 147.568 7.15578 147.767 7.51705C147.966 7.87831 148.065 8.36222 148.065 8.96875V14H146.892V12.9659H146.832C146.753 13.1316 146.62 13.3089 146.434 13.4979C146.249 13.6868 146.002 13.8475 145.694 13.9801C145.385 14.1127 145.009 14.179 144.565 14.179ZM144.744 13.125C145.208 13.125 145.599 13.0339 145.917 12.8516C146.239 12.6693 146.481 12.4339 146.643 12.1456C146.809 11.8572 146.892 11.554 146.892 11.2358V10.1619C146.842 10.2216 146.733 10.2763 146.564 10.326C146.398 10.3724 146.206 10.4138 145.987 10.4503C145.772 10.4834 145.561 10.5133 145.356 10.5398C145.153 10.563 144.989 10.5829 144.863 10.5994C144.559 10.6392 144.273 10.7038 144.008 10.7933C143.747 10.8795 143.534 11.0104 143.372 11.1861C143.213 11.3584 143.133 11.5937 143.133 11.892C143.133 12.2997 143.284 12.608 143.586 12.8168C143.891 13.0223 144.277 13.125 144.744 13.125ZM153.528 6.36364V7.35795H149.57V6.36364H153.528ZM150.724 4.53409H151.897V11.8125C151.897 12.1439 151.945 12.3925 152.041 12.5582C152.141 12.7206 152.267 12.83 152.419 12.8864C152.575 12.9394 152.739 12.9659 152.911 12.9659C153.04 12.9659 153.147 12.9593 153.229 12.946C153.312 12.9295 153.379 12.9162 153.428 12.9062L153.667 13.9602C153.587 13.9901 153.476 14.0199 153.334 14.0497C153.191 14.0829 153.011 14.0994 152.792 14.0994C152.46 14.0994 152.136 14.0282 151.817 13.8857C151.503 13.7431 151.241 13.526 151.032 13.2344C150.826 12.9427 150.724 12.5748 150.724 12.1307V4.53409ZM158.412 14.1591C157.676 14.1591 157.042 13.9967 156.508 13.6719C155.978 13.3438 155.569 12.8864 155.28 12.2997C154.995 11.7098 154.853 11.0237 154.853 10.2415C154.853 9.45928 154.995 8.76989 155.28 8.1733C155.569 7.57339 155.97 7.10606 156.483 6.77131C157 6.43324 157.604 6.2642 158.293 6.2642C158.691 6.2642 159.083 6.33049 159.471 6.46307C159.859 6.59564 160.212 6.81108 160.53 7.10938C160.848 7.40436 161.102 7.79545 161.291 8.28267C161.48 8.76989 161.574 9.36979 161.574 10.0824V10.5795H155.688V9.56534H160.381C160.381 9.13447 160.295 8.75 160.123 8.41193C159.953 8.07386 159.712 7.80705 159.397 7.61151C159.085 7.41596 158.717 7.31818 158.293 7.31818C157.826 7.31818 157.421 7.43419 157.08 7.66619C156.742 7.89489 156.482 8.19318 156.299 8.56108C156.117 8.92898 156.026 9.32339 156.026 9.74432V10.4205C156.026 10.9972 156.125 11.486 156.324 11.8871C156.526 12.2848 156.806 12.5881 157.164 12.7969C157.522 13.0024 157.938 13.1051 158.412 13.1051C158.721 13.1051 158.999 13.062 159.248 12.9759C159.499 12.8864 159.717 12.7538 159.899 12.5781C160.081 12.3991 160.222 12.1771 160.321 11.9119L161.455 12.2301C161.336 12.6146 161.135 12.9527 160.853 13.2443C160.572 13.5327 160.224 13.758 159.809 13.9205C159.395 14.0795 158.929 14.1591 158.412 14.1591ZM166.441 17.0227C165.875 17.0227 165.387 16.9498 164.98 16.804C164.572 16.6615 164.232 16.4725 163.961 16.2372C163.692 16.0052 163.478 15.7566 163.319 15.4915L164.254 14.8352C164.36 14.9744 164.494 15.1335 164.657 15.3125C164.819 15.4948 165.041 15.6522 165.323 15.7848C165.608 15.9207 165.981 15.9886 166.441 15.9886C167.058 15.9886 167.567 15.8395 167.968 15.5412C168.369 15.2429 168.569 14.7756 168.569 14.1392V12.5881H168.47C168.384 12.7273 168.261 12.8996 168.102 13.1051C167.946 13.3073 167.721 13.4879 167.426 13.647C167.134 13.8028 166.74 13.8807 166.243 13.8807C165.626 13.8807 165.073 13.7348 164.582 13.4432C164.095 13.1515 163.709 12.7273 163.424 12.1705C163.142 11.6136 163.001 10.9375 163.001 10.142C163.001 9.35985 163.139 8.67874 163.414 8.09872C163.689 7.51539 164.072 7.06463 164.562 6.74645C165.053 6.42495 165.619 6.2642 166.262 6.2642C166.76 6.2642 167.154 6.34706 167.446 6.51278C167.741 6.67519 167.966 6.8608 168.122 7.0696C168.281 7.27509 168.404 7.44413 168.49 7.5767H168.609V6.36364H169.743V14.2188C169.743 14.875 169.593 15.4086 169.295 15.8196C169 16.2339 168.602 16.5372 168.102 16.7294C167.605 16.925 167.051 17.0227 166.441 17.0227ZM166.402 12.8267C166.872 12.8267 167.27 12.719 167.595 12.5036C167.92 12.2881 168.167 11.9782 168.336 11.5739C168.505 11.1695 168.589 10.6856 168.589 10.1222C168.589 9.57197 168.506 9.08641 168.341 8.66548C168.175 8.24455 167.93 7.91477 167.605 7.67614C167.28 7.4375 166.879 7.31818 166.402 7.31818C165.904 7.31818 165.49 7.44413 165.159 7.69602C164.831 7.94792 164.584 8.28598 164.418 8.71023C164.256 9.13447 164.174 9.60511 164.174 10.1222C164.174 10.6525 164.257 11.1214 164.423 11.5291C164.592 11.9335 164.841 12.2517 165.169 12.4837C165.5 12.7124 165.911 12.8267 166.402 12.8267ZM174.993 14.1591C174.303 14.1591 173.698 13.995 173.178 13.6669C172.661 13.3388 172.257 12.8797 171.965 12.2898C171.676 11.6998 171.532 11.0104 171.532 10.2216C171.532 9.42614 171.676 8.73177 171.965 8.13849C172.257 7.54522 172.661 7.08452 173.178 6.75639C173.698 6.42827 174.303 6.2642 174.993 6.2642C175.682 6.2642 176.285 6.42827 176.802 6.75639C177.323 7.08452 177.727 7.54522 178.015 8.13849C178.307 8.73177 178.453 9.42614 178.453 10.2216C178.453 11.0104 178.307 11.6998 178.015 12.2898C177.727 12.8797 177.323 13.3388 176.802 13.6669C176.285 13.995 175.682 14.1591 174.993 14.1591ZM174.993 13.1051C175.516 13.1051 175.947 12.9709 176.285 12.7024C176.623 12.4339 176.873 12.081 177.036 11.6435C177.198 11.206 177.279 10.732 177.279 10.2216C177.279 9.71117 177.198 9.23556 177.036 8.79474C176.873 8.35393 176.623 7.99763 176.285 7.72585C175.947 7.45407 175.516 7.31818 174.993 7.31818C174.469 7.31818 174.038 7.45407 173.7 7.72585C173.362 7.99763 173.112 8.35393 172.949 8.79474C172.787 9.23556 172.706 9.71117 172.706 10.2216C172.706 10.732 172.787 11.206 172.949 11.6435C173.112 12.081 173.362 12.4339 173.7 12.7024C174.038 12.9709 174.469 13.1051 174.993 13.1051ZM180.244 14V6.36364H181.377V7.51705H181.457C181.596 7.1392 181.848 6.83262 182.213 6.5973C182.577 6.36198 182.988 6.24432 183.445 6.24432C183.532 6.24432 183.639 6.24597 183.769 6.24929C183.898 6.2526 183.996 6.25758 184.062 6.2642V7.45739C184.022 7.44744 183.931 7.43253 183.789 7.41264C183.649 7.38944 183.502 7.37784 183.346 7.37784C182.975 7.37784 182.643 7.45573 182.352 7.61151C182.063 7.76397 181.835 7.97609 181.666 8.24787C181.5 8.51634 181.417 8.82292 181.417 9.16761V14H180.244ZM185.453 14V6.36364H186.626V14H185.453ZM186.049 5.09091C185.821 5.09091 185.623 5.01302 185.458 4.85724C185.295 4.70147 185.214 4.5142 185.214 4.29545C185.214 4.0767 185.295 3.88944 185.458 3.73366C185.623 3.57789 185.821 3.5 186.049 3.5C186.278 3.5 186.474 3.57789 186.636 3.73366C186.802 3.88944 186.885 4.0767 186.885 4.29545C186.885 4.5142 186.802 4.70147 186.636 4.85724C186.474 5.01302 186.278 5.09091 186.049 5.09091ZM189.63 14.0795C189.385 14.0795 189.174 13.9917 188.999 13.8161C188.823 13.6404 188.735 13.4299 188.735 13.1847C188.735 12.9394 188.823 12.7289 188.999 12.5533C189.174 12.3776 189.385 12.2898 189.63 12.2898C189.875 12.2898 190.086 12.3776 190.262 12.5533C190.437 12.7289 190.525 12.9394 190.525 13.1847C190.525 13.3471 190.484 13.4962 190.401 13.6321C190.321 13.768 190.213 13.8774 190.078 13.9602C189.945 14.0398 189.796 14.0795 189.63 14.0795ZM193.486 14.0795C193.24 14.0795 193.03 13.9917 192.854 13.8161C192.679 13.6404 192.591 13.4299 192.591 13.1847C192.591 12.9394 192.679 12.7289 192.854 12.5533C193.03 12.3776 193.24 12.2898 193.486 12.2898C193.731 12.2898 193.941 12.3776 194.117 12.5533C194.293 12.7289 194.381 12.9394 194.381 13.1847C194.381 13.3471 194.339 13.4962 194.256 13.6321C194.177 13.768 194.069 13.8774 193.933 13.9602C193.8 14.0398 193.651 14.0795 193.486 14.0795ZM197.341 14.0795C197.096 14.0795 196.885 13.9917 196.71 13.8161C196.534 13.6404 196.446 13.4299 196.446 13.1847C196.446 12.9394 196.534 12.7289 196.71 12.5533C196.885 12.3776 197.096 12.2898 197.341 12.2898C197.586 12.2898 197.797 12.3776 197.972 12.5533C198.148 12.7289 198.236 12.9394 198.236 13.1847C198.236 13.3471 198.195 13.4962 198.112 13.6321C198.032 13.768 197.924 13.8774 197.789 13.9602C197.656 14.0398 197.507 14.0795 197.341 14.0795Z" fill="#6B7280"/>
</g>
<defs>
<clipPath id="clip0_4_1000">
<rect width="494" height="17" fill="white"/>
</clipPath>
</defs>
</svg>
